<?xml version="1.0" standalone="no"?>
<!DOCTYPE svg PUBLIC "-//W3C//DTD SVG 20010904//EN"
 "http://www.w3.org/TR/2001/REC-SVG-20010904/DTD/svg10.dtd">
<svg version="1.0" xmlns="http://www.w3.org/2000/svg"
 width="299.000000pt" height="299.000000pt" viewBox="0 0 299.000000 299.000000"
 preserveAspectRatio="xMidYMid meet">
<metadata>
Created by potrace 1.10, written by Peter Selinger 2001-2011
</metadata>
<g transform="translate(0.000000,299.000000) scale(0.100000,-0.100000)"
fill="#000000" stroke="none">
<path d="M0 1495 l0 -1495 1495 0 1495 0 0 1495 0 1495 -1495 0 -1495 0 0
-1495z m1575 980 c26 -58 59 -180 70 -259 l7 -49 -90 -86 c-153 -147 -212
-264 -212 -420 0 -63 7 -104 24 -153 12 -38 20 -68 16 -68 -11 0 -145 110
-173 143 -16 17 -41 59 -58 92 -24 49 -29 73 -29 130 1 117 55 224 204 403 99
119 179 236 198 288 6 19 14 34 16 34 2 0 14 -25 27 -55z m299 -187 c50 -114
67 -270 34 -320 -9 -13 -63 -49 -120 -78 -172 -90 -270 -206 -319 -375 l-17
-60 -17 39 c-80 187 -11 398 187 567 89 75 147 144 188 221 17 32 33 58 36 58
3 0 15 -24 28 -52z m-765 -36 c11 -21 29 -66 41 -101 l21 -62 -41 -82 c-70
-143 -74 -265 -13 -379 24 -45 116 -141 173 -181 25 -18 24 -18 -50 -13 -136
10 -259 70 -314 153 -41 61 -60 155 -48 229 11 64 13 69 110 254 33 63 68 139
77 168 10 28 19 52 21 52 2 0 12 -17 23 -38z m996 -219 c-9 -103 -34 -220 -59
-282 -83 -206 -252 -321 -469 -321 l-70 0 7 43 c3 23 23 76 43 117 52 107 138
190 269 258 117 61 196 128 239 201 17 28 34 51 38 51 4 0 5 -30 2 -67z m-465
-728 l0 -65 -220 0 -220 0 0 65 0 65 220 0 220 0 0 -65z m-91 -147 c0 -13 -24
-203 -52 -423 l-52 -400 -27 -3 c-22 -3 -28 2 -33 20 -2 13 -23 192 -45 398
-22 206 -42 387 -45 403 l-4 27 129 0 c128 0 130 0 129 -22z"/>
</g>
</svg>
