<svg id="svg" version="1.1" xmlns="http://www.w3.org/2000/svg" style="display: block;" viewBox="0 0 299 299"><path d="M0 0 C98.67 0 197.34 0 299 0 C299 98.67 299 197.34 299 299 C200.33 299 101.66 299 0 299 C0 200.33 0 101.66 0 0 Z " transform="translate(0,0)" style="fill: #633E94;"/><path d="M0 0 C6.56813441 4.37875628 7.93344863 15.4220464 9.4140625 22.81640625 C9.60742188 23.86699219 9.80078125 24.91757813 10 26 C10.23460937 26.91652344 10.46921875 27.83304688 10.7109375 28.77734375 C11.2249898 32.07988728 11.17340004 33.84084604 10 37 C7.33311811 40.24009148 4.163839 42.92544435 0.9934082 45.65893555 C-9.13288174 54.39129424 -16.84739255 65.54620345 -19 79 C-19.54695316 87.61451231 -18.92758947 94.89983017 -16 103 C-15.65056968 104.32920553 -15.3119143 105.66149398 -15 107 C-19.50268569 105.5624453 -22.55262633 103.06120684 -25.9375 99.875 C-26.46529053 99.3814502 -26.99308105 98.88790039 -27.53686523 98.37939453 C-35.7034089 90.60521841 -40.98310493 83.15606243 -41.375 71.5625 C-40.75660075 53.75260156 -28.4481006 39.81234002 -17.3515625 26.90234375 C-10.36681966 18.74631327 -3.7492028 10.17908561 0 0 Z " transform="translate(154,47)" style="fill: #FBFBFC;"/><path d="M0 0 C0.33 0 0.66 0 1 0 C2.08701503 17.36204565 -2.33251542 36.68636042 -14 50 C-14.50015625 50.60457031 -15.0003125 51.20914063 -15.515625 51.83203125 C-23.29878505 60.50307607 -35.52549049 65.24022772 -47 66 C-50.66855394 66.07269261 -54.33137499 66.06069416 -58 66 C-56.20623562 51.91761097 -49.93559851 40.6702451 -39.04296875 31.51708984 C-35.34973072 28.77452518 -31.26936647 26.78436238 -27.1875 24.6875 C-16.06311022 18.74795886 -8.22743197 12.61511248 -1.27734375 1.87109375 C-0.85582031 1.25363281 -0.43429688 0.63617188 0 0 Z " transform="translate(209,90)" style="fill: #FBFBFC;"/><path d="M0 0 C3.25877878 2.61633382 3.98900655 5.49730226 5.125 9.4375 C5.45757812 10.57058594 5.79015625 11.70367187 6.1328125 12.87109375 C6.41898438 13.90363281 6.70515625 14.93617187 7 16 C7.29970703 16.97839844 7.29970703 16.97839844 7.60546875 17.9765625 C8.18930149 20.97087299 8.1712392 23.89022556 8.1875 26.9375 C8.20167969 28.14277344 8.21585938 29.34804687 8.23046875 30.58984375 C8.00079879 33.98818061 7.53337915 35.98997793 6 39 C4.11157227 40.43457031 4.11157227 40.43457031 1.81640625 41.578125 C0.55606567 42.2287793 0.55606567 42.2287793 -0.72973633 42.89257812 C-1.62329834 43.34052734 -2.51686035 43.78847656 -3.4375 44.25 C-20.63102906 53.32703497 -30.30798218 63.38955374 -37 82 C-37.35769526 83.32700527 -37.7018576 84.65835921 -38 86 C-38.66 86 -39.32 86 -40 86 C-44.80307722 77.67466614 -44.32299282 63.80505843 -41.9375 54.6875 C-37.06808819 41.34664574 -26.57584142 31.26480948 -15.75 22.5 C-8.83322 16.64056217 -3.85558853 8.088222 0 0 Z " transform="translate(184,65)" style="fill: #FBFBFC;"/><path d="M0 0 C4.79328138 5.51227359 7.82005881 12.91076458 8.37890625 20.17578125 C7.7006127 25.23151566 5.12798287 29.509482 2.6640625 33.8984375 C-1.76408063 42.15183103 -1.07841005 52.52075245 1.5625 61.3125 C5.10511992 70.60724842 11.04412544 76.44386232 18.86328125 82.37109375 C21 84 21 84 23 86 C11.11090287 86.59445486 -0.79859977 83.69384066 -10.2578125 76.21484375 C-17.03510291 69.92521814 -20.07334614 64.02187507 -20.46899414 54.81201172 C-20.63703559 42.62040576 -16.40333331 34.54010861 -10.43774414 24.19018555 C-6.14402551 16.67506742 -1.81875467 8.51507867 0 0 Z " transform="translate(108,70)" style="fill: #FBFAFB;"/><path d="M0 0 C8.25 0 16.5 0 25 0 C23.84471968 9.78838138 22.68871535 19.57667652 21.53144932 29.36482334 C20.99406799 33.91023617 20.45699943 38.45568548 19.9206543 43.0012207 C19.40268609 47.39091098 18.88388501 51.78050211 18.3645153 56.17002678 C18.1668752 57.84164896 17.96953119 59.51330618 17.77249336 61.18499947 C17.49568728 63.53301405 17.21781231 65.88089991 16.93969727 68.22875977 C16.85913589 68.91424896 16.77857452 69.59973816 16.6955719 70.30599976 C16.47003079 72.20476075 16.23518761 74.10240971 16 76 C15.85686874 77.27403183 15.71373749 78.54806366 15.56626892 79.86070251 C15 83 15 83 13 85 C10.875 84.625 10.875 84.625 9 84 C7.70978868 77.76855383 6.77550651 71.52463554 6.09375 65.19921875 C6.00993073 64.43265457 5.92611145 63.66609039 5.8397522 62.876297 C4.7450094 52.77449044 3.72562338 42.664744 2.71289062 32.55444336 C2.3709726 29.14736858 2.02534735 25.74068133 1.6796875 22.33398438 C1.46071145 20.15366852 1.24195324 17.97333078 1.0234375 15.79296875 C0.92034271 14.78155319 0.81724792 13.77013763 0.71102905 12.72807312 C0.61738068 11.78551163 0.5237323 10.84295013 0.42724609 9.87182617 C0.30305801 8.63755135 0.30305801 8.63755135 0.17636108 7.37834167 C-0.00556681 4.92492797 0 2.4601497 0 0 Z " transform="translate(130,181)" style="fill: #FBFAFB;"/><path d="M0 0 C14.19 0 28.38 0 43 0 C43 4.29 43 8.58 43 13 C28.81 13 14.62 13 0 13 C0 8.71 0 4.42 0 0 Z " transform="translate(121,162)" style="fill: #F4F2F8;"/></svg>