<?xml version="1.0" standalone="no"?>
<!DOCTYPE svg PUBLIC "-//W3C//DTD SVG 20010904//EN"
 "http://www.w3.org/TR/2001/REC-SVG-20010904/DTD/svg10.dtd">
<svg version="1.0" xmlns="http://www.w3.org/2000/svg"
 width="182.000000pt" height="131.000000pt" viewBox="0 0 182.000000 131.000000"
 preserveAspectRatio="xMidYMid meet">
<metadata>
Created by potrace 1.10, written by Peter Selinger 2001-2011
</metadata>
<g transform="translate(0.000000,131.000000) scale(0.100000,-0.100000)"
fill="#000000" stroke="none">
<path d="M0 645 l0 -645 910 0 910 0 0 645 0 645 -910 0 -910 0 0 -645z m500
570 c0 -2 -97 -211 -215 -462 l-215 -458 0 463 0 462 215 0 c118 0 215 -2 215
-5z m356 -132 c-34 -76 -152 -335 -262 -575 l-199 -438 -163 0 -162 0 14 32
c7 18 125 277 261 576 l248 542 163 0 163 0 -63 -137z m470 120 c-4 -10 -120
-269 -259 -575 l-252 -558 -164 0 c-151 0 -163 1 -158 17 3 10 106 239 230
508 123 270 238 520 255 558 l31 67 161 0 c150 0 162 -1 156 -17z m423 10 c0
-5 -116 -262 -258 -573 l-257 -565 -162 -3 c-89 -1 -162 0 -162 4 0 6 480
1065 507 1117 l14 27 159 0 c88 0 160 -3 159 -7z m-2 -1140 c-2 -2 -99 -2
-215 -1 l-211 3 48 100 c26 55 121 258 212 452 l164 352 3 -451 c1 -248 1
-453 -1 -455z"/>
</g>
</svg>
