<svg id="c0b03923-ba36-4c03-8573-f2d4253c7ed7" data-name="Layer 1" xmlns="http://www.w3.org/2000/svg" viewBox="0 0 506.47 99.13"><title>_LOGOS UTDT</title><rect x="-7.01" y="-5.35" width="520.49" height="109.84" style="fill:#1b1c20"/><path d="M467.08,54.79h5.59l8.49,23.58h-5.09l-1.57-4.93h-9.1l-1.56,4.93h-5.09l8.33-23.58Zm2.87,4.7-3.25,10h6.51l-3.26-10ZM441.29,78.37V54.79h4.82V74h11.46v4.42Zm-20.05,0V54.79h4.93V74h11.48v4.42Zm-22.28,0V54.79H416v4.06H403.78v5.08H415v4h-11.2v6h12.9v4.42Zm-15.49,0V59h-7V54.79h18.76V59h-6.92V78.37Zm-28.44,0V54.79h4.82V78.37Zm-24.89,0V54.79h9.13c3.64,0,6.37.93,8.06,2.87,1.85,2,2.74,5,2.74,8.86a15.35,15.35,0,0,1-1,5.74,8.3,8.3,0,0,1-2.86,3.92A9.55,9.55,0,0,1,343,77.86a22.92,22.92,0,0,1-5.07.51Zm4.7-4.29h3.91c2.2,0,3.89-.64,4.81-1.82s1.57-3,1.57-5.74c0-2.59-.53-4.55-1.44-5.72S341.35,59,339.27,59h-4.43v15.1Zm-44.75-7.56q0-5.65,3.12-9a10.91,10.91,0,0,1,8.34-3.38A11.17,11.17,0,0,1,310,57.53q3.14,3.33,3.13,9c0,3.79-1,6.92-3.13,9.12a11.15,11.15,0,0,1-8.47,3.4,10.89,10.89,0,0,1-8.34-3.4c-2.08-2.2-3.12-5.33-3.12-9.12Zm5,0c0,2.61.53,4.7,1.71,6.13a5.72,5.72,0,0,0,4.8,2.07,6,6,0,0,0,4.95-2.07c1.18-1.43,1.7-3.52,1.7-6.13a9.11,9.11,0,0,0-1.7-6,6.11,6.11,0,0,0-4.95-2.19,5.81,5.81,0,0,0-4.8,2.19,9.12,9.12,0,0,0-1.71,6Zm-19.4,11.85V59h-7V54.79h18.77V59h-6.91V78.37ZM254.41,54.79H260l8.47,23.58H263.4l-1.57-4.93h-9.12l-1.56,4.93h-5.08l8.34-23.58Zm2.87,4.7-3.39,10h6.64l-3.25-10Zm-32.84-4.81h5V69.52c0,1.83.25,3.13,1,3.92s1.82,1.28,3.38,1.28,2.87-.37,3.52-1.28a5.39,5.39,0,0,0,1.18-3.92V54.68h4.81V70.05c0,2.86-.78,5.08-2.48,6.64S237,79,234,79s-5.47-.78-7-2.35-2.48-3.78-2.48-6.64V54.68Zm-4.69,15.49a8.23,8.23,0,0,1-3.12,6.4,10.36,10.36,0,0,1-7.3,2.47,10.7,10.7,0,0,1-8.19-3.27,14.22,14.22,0,0,1-2.88-9.25c0-3.9,1.05-7,3-9.1s4.82-3.27,8.45-3.27a10.92,10.92,0,0,1,7.18,2.22,8.33,8.33,0,0,1,2.86,6.25h-4.82a4.85,4.85,0,0,0-1.56-3.13,6.14,6.14,0,0,0-3.66-1,5.61,5.61,0,0,0-4.8,2.07,9.11,9.11,0,0,0-1.7,6c0,2.61.52,4.56,1.7,6a5.37,5.37,0,0,0,4.69,2.08,5.53,5.53,0,0,0,3.63-1.16,5.08,5.08,0,0,0,1.84-3.27ZM175,78.37V54.79h11.46c2.47,0,4.43.53,5.6,1.58a6.44,6.44,0,0,1,2,5.09,8,8,0,0,1-.91,3.63,5.66,5.66,0,0,1-2.62,2,4.17,4.17,0,0,1,2.22,1.69,6.94,6.94,0,0,1,.66,3.39l.13,2.87h0c0,1.42.39,2.34.9,2.59v.78H189c-.13-.38-.26-.78-.39-1.29s-.13-1-.13-1.7V72.91a5,5,0,0,0-.91-3,3.44,3.44,0,0,0-2.59-.79h-5.24v9.24Zm4.8-13.28h5.75a4.32,4.32,0,0,0,2.74-.78,3.26,3.26,0,0,0,.9-2.34,3.31,3.31,0,0,0-.9-2.35,3.55,3.55,0,0,0-2.49-.77h-6v6.24Zm-32.68,1.43q0-5.65,3.13-9a11.22,11.22,0,0,1,8.47-3.38A10.92,10.92,0,0,1,167,57.53q3.12,3.33,3.12,9c0,3.79-1,6.92-3.12,9.12a10.9,10.9,0,0,1-8.34,3.4,11.19,11.19,0,0,1-8.47-3.4c-2.08-2.2-3.13-5.33-3.13-9.12Zm5,0a9.55,9.55,0,0,0,1.82,6.13,6.64,6.64,0,0,0,9.63,0,9.49,9.49,0,0,0,1.83-6.13,9.13,9.13,0,0,0-1.83-6,6.39,6.39,0,0,0-9.63,0,9.19,9.19,0,0,0-1.82,6ZM132.62,78.37V59h-7V54.79h18.89V59h-7V78.37Z" style="fill:#fff;fill-rule:evenodd"/><path d="M326.16,44.2V20.62h9a9.82,9.82,0,0,1,7.56,3c1.69,1.95,2.59,4.81,2.59,8.46,0,3.9-.9,6.79-2.73,9A9.42,9.42,0,0,1,335,44.2Zm8.74-20.84h-5.46v18h5.46a6.6,6.6,0,0,0,5.34-2.21,11.42,11.42,0,0,0,1.82-6.9,10.45,10.45,0,0,0-1.82-6.52,6.49,6.49,0,0,0-5.34-2.34ZM301.81,44.2l8.74-23.58h3.52l8.72,23.58H319.4l-2.47-7h-9.39l-2.46,7Zm6.78-9.76h7.3L312.23,24l-3.64,10.43Zm-28,9.76V20.62h9a9.82,9.82,0,0,1,7.56,3c1.67,1.95,2.6,4.81,2.6,8.46,0,3.9-.93,6.79-2.74,9a9.44,9.44,0,0,1-7.55,3.13Zm8.72-20.84h-5.47v18h5.47a6.61,6.61,0,0,0,5.34-2.21,11.42,11.42,0,0,0,1.82-6.9,10.45,10.45,0,0,0-1.82-6.52,6.5,6.5,0,0,0-5.34-2.34Zm-18,20.84V20.62h3.26V44.2Zm-23.18-7.69h3a6.11,6.11,0,0,0,1.69,4,6.38,6.38,0,0,0,4.44,1.56,6.94,6.94,0,0,0,4.29-1.17,3.54,3.54,0,0,0,1.69-3.12c0-1.83-2.1-3.25-6-4.17-.28,0-.41,0-.53-.13-3.25-.79-5.34-1.55-6.38-2.47a5.23,5.23,0,0,1-1.58-4,6.28,6.28,0,0,1,2.36-5.08,10.08,10.08,0,0,1,6.13-1.84,8.9,8.9,0,0,1,6.12,2,6.9,6.9,0,0,1,2.34,5.46l-3.13.14A5.07,5.07,0,0,0,261.05,24a5.72,5.72,0,0,0-3.92-1.3,6.24,6.24,0,0,0-3.77,1,2.93,2.93,0,0,0-1.42,2.73c0,1.83,1.95,3.13,5.84,4,.53.14.92.26,1.32.4h.26c2.59.64,4.3,1.3,5.07,2a6.32,6.32,0,0,1,1.44,1.95,5.94,5.94,0,0,1,.53,2.6,6.81,6.81,0,0,1-2.49,5.46,9.92,9.92,0,0,1-6.5,2c-2.87,0-5.09-.64-6.79-2.2a8.58,8.58,0,0,1-2.47-6.13ZM226.54,20.62h9.11a18.35,18.35,0,0,1,3.23.26,8.44,8.44,0,0,1,2,.65,6.06,6.06,0,0,1,2.22,2.22,7.28,7.28,0,0,1,.78,3.53,6.55,6.55,0,0,1-.78,3.24,6.49,6.49,0,0,1-2.48,2.09,3.15,3.15,0,0,1,2,1.29,6.67,6.67,0,0,1,.78,3l.27,3.89a7.21,7.21,0,0,0,.25,2c.26.39.4.65.79.79v.64H241c-.41-.51-.54-1.56-.66-3.13v-.13l-.25-3a4.43,4.43,0,0,0-.92-3.12,9.68,9.68,0,0,0-4.31-.65h-5.21v10h-3.11V20.62Zm3.11,2.87v7.93h5.48a7.76,7.76,0,0,0,4.16-.9,3.93,3.93,0,0,0,1.3-3.24,3.6,3.6,0,0,0-1.16-3,8.38,8.38,0,0,0-4.3-.78Zm-25,20.71V20.62h16.81v3H207.9v7h12.51v2.73H207.9v7.94h13.81V44.2Zm-15,0L181.2,20.62h3.38l6.78,19.81,6.51-19.81h3.39L192.92,44.2Zm-15.11,0V20.62h3.13V44.2Zm-24.61,0V20.62h3.39l11.07,17.2c.26.38.39.64.65,1.06.13.24.26.63.38.89V20.62h3.13V44.2h-3.51l-11.2-17.32a2.94,2.94,0,0,1-.52-.78c-.13-.27-.26-.66-.38-.93v19Zm-24.36-8.86V20.62h3.26V35.34a7.09,7.09,0,0,0,1.44,4.83,7,7,0,0,0,9.11,0c1-1.05,1.44-2.61,1.44-4.83V20.62h3.25V35.34c0,3.12-.78,5.46-2.47,7.16s-4.05,2.34-7.17,2.34a9,9,0,0,1-6.65-2.34C126.36,40.94,125.58,38.46,125.58,35.34Z" style="fill:#fff;fill-rule:evenodd"/><polygon points="93.5 20.4 109.97 20.4 83.57 78.39 67.11 78.39 93.5 20.4" style="fill:#f9bc00;fill-rule:evenodd"/><polygon points="72.55 20.4 89.25 20.4 62.72 78.39 46.28 78.39 72.55 20.4" style="fill:#f9bc00;fill-rule:evenodd"/><polygon points="51.71 20.4 68.18 20.4 41.77 78.39 25.31 78.39 51.71 20.4" style="fill:#f9bc00;fill-rule:evenodd"/><polygon points="87.7 78.39 109.97 30.92 109.97 78.39 87.7 78.39" style="fill:#808083;fill-rule:evenodd"/><polygon points="47.58 20.4 25.31 67.87 25.31 20.4 47.58 20.4" style="fill:#808083;fill-rule:evenodd"/></svg>