<svg id="8b0087ec-5623-4208-84a9-3024d6b68fc1" data-name="Layer 1" xmlns="http://www.w3.org/2000/svg" viewBox="0 0 506.47 99.13"><title>_LOGOS UTDT</title><path d="M468.44,54.19h5.66l8.61,23.93h-5.16l-1.59-5h-9.24l-1.59,5H460l8.47-23.93Zm2.9,4.77L468,69.13h6.61L471.34,59ZM442.25,78.12V54.19h4.89V73.63h11.64v4.49Zm-20.33,0V54.19h5V73.63h11.64v4.49Zm-22.62,0V54.19h17.32V58.3H404.2v5.16h11.36v4.08H404.2v6.09h13.08v4.49Zm-15.7,0V58.43h-7.15V54.19h19v4.24h-7V78.12Zm-28.87,0V54.19h4.89V78.12Zm-25.25,0V54.19h9.26c3.7,0,6.46.94,8.18,2.91,1.88,2,2.77,5,2.77,9a15.58,15.58,0,0,1-1,5.82,8.33,8.33,0,0,1-2.91,4,9.07,9.07,0,0,1-3.17,1.7,23.29,23.29,0,0,1-5.14.53Zm4.76-4.37h4c2.25,0,4-.64,4.89-1.84s1.58-3,1.58-5.82-.53-4.62-1.45-5.81-2.37-1.85-4.49-1.85h-4.5V73.75Zm-45.4-7.66q0-5.75,3.18-9.12a11,11,0,0,1,8.45-3.43,11.32,11.32,0,0,1,8.6,3.43q3.18,3.38,3.17,9.12c0,3.84-1.05,7-3.17,9.25a11.34,11.34,0,0,1-8.6,3.45A11,11,0,0,1,292,75.34c-2.12-2.23-3.18-5.41-3.18-9.25Zm5,0c0,2.65.54,4.76,1.74,6.21a5.82,5.82,0,0,0,4.87,2.11,6.13,6.13,0,0,0,5-2.11c1.19-1.45,1.71-3.56,1.71-6.21s-.52-4.62-1.71-6.08a6.21,6.21,0,0,0-5-2.23A5.91,5.91,0,0,0,295.6,60a9.24,9.24,0,0,0-1.74,6.08Zm-19.68,12V58.43H267V54.19h19v4.24h-7V78.12ZM252.65,54.19h5.67l8.59,23.93h-5.14l-1.61-5h-9.24l-1.59,5h-5.16l8.48-23.93Zm2.9,4.77-3.43,10.17h6.72L255.55,59Zm-33.32-4.89h5V69.13c0,1.86.25,3.17,1,4s1.85,1.3,3.43,1.3,2.91-.38,3.57-1.3a5.49,5.49,0,0,0,1.19-4V54.07h4.88v15.6c0,2.9-.78,5.15-2.5,6.73s-4,2.39-7,2.39-5.56-.8-7.13-2.39c-1.74-1.58-2.53-3.83-2.53-6.73V54.07Zm-4.76,15.72a8.33,8.33,0,0,1-3.16,6.49,10.54,10.54,0,0,1-7.41,2.51,10.85,10.85,0,0,1-8.31-3.32,14.44,14.44,0,0,1-2.92-9.38c0-4,1.07-7.13,3-9.23,2-2.26,4.89-3.32,8.58-3.32a11.07,11.07,0,0,1,7.28,2.25,8.44,8.44,0,0,1,2.9,6.34h-4.88A5,5,0,0,0,211,59a6.15,6.15,0,0,0-3.71-1A5.68,5.68,0,0,0,202.42,60c-1.2,1.46-1.72,3.45-1.72,6.08s.52,4.62,1.72,6.08a5.43,5.43,0,0,0,4.76,2.11,5.6,5.6,0,0,0,3.68-1.17,5.13,5.13,0,0,0,1.86-3.32ZM172,78.12V54.19h11.63c2.51,0,4.49.53,5.69,1.6a6.57,6.57,0,0,1,2,5.16,8.07,8.07,0,0,1-.93,3.68,5.64,5.64,0,0,1-2.65,2A4.18,4.18,0,0,1,190,68.34a7.08,7.08,0,0,1,.66,3.44l.13,2.91h0c0,1.44.41,2.37.93,2.63v.8h-5.43c-.13-.39-.26-.8-.39-1.32s-.13-1.06-.13-1.72V72.57a5.11,5.11,0,0,0-.93-3,3.43,3.43,0,0,0-2.63-.8h-5.31v9.38Zm4.88-13.49h5.83a4.42,4.42,0,0,0,2.78-.78,3.31,3.31,0,0,0,.91-2.38,3.39,3.39,0,0,0-.91-2.39A3.64,3.64,0,0,0,183,58.3h-6.09v6.33Zm-33.16,1.46q0-5.75,3.18-9.12a11.35,11.35,0,0,1,8.59-3.43A11.05,11.05,0,0,1,164,57q3.18,3.38,3.17,9.12c0,3.84-1,7-3.17,9.25a11.07,11.07,0,0,1-8.46,3.45,11.36,11.36,0,0,1-8.59-3.45c-2.12-2.23-3.18-5.41-3.18-9.25Zm5,0a9.64,9.64,0,0,0,1.85,6.21,6.71,6.71,0,0,0,9.77,0,9.58,9.58,0,0,0,1.86-6.21A9.25,9.25,0,0,0,160.38,60a6.47,6.47,0,0,0-9.77,0,9.31,9.31,0,0,0-1.85,6.08Zm-19.69,12V58.43h-7.15V54.19H141.1v4.24H134V78.12Z" style="fill:#1b1c20;fill-rule:evenodd"/><path d="M325.45,43.44V19.52h9.13a10,10,0,0,1,7.67,3.05c1.71,2,2.63,4.88,2.63,8.58,0,4-.92,6.89-2.77,9.12a9.57,9.57,0,0,1-7.67,3.17Zm8.86-21.15h-5.54V40.53h5.54a6.7,6.7,0,0,0,5.42-2.24,11.67,11.67,0,0,0,1.85-7,10.65,10.65,0,0,0-1.85-6.61,6.61,6.61,0,0,0-5.42-2.38ZM300.74,43.44l8.86-23.92h3.57L322,43.44h-3.45l-2.51-7.14h-9.52l-2.5,7.14Zm6.87-9.91H315L311.31,23l-3.7,10.58ZM279.2,43.44V19.52h9.11A10,10,0,0,1,296,22.57c1.69,2,2.64,4.88,2.64,8.58,0,4-.95,6.89-2.78,9.12a9.59,9.59,0,0,1-7.66,3.17Zm8.85-21.15H282.5V40.53h5.55a6.71,6.71,0,0,0,5.42-2.24c1.2-1.59,1.85-4,1.85-7a10.59,10.59,0,0,0-1.85-6.61,6.61,6.61,0,0,0-5.42-2.38ZM269.81,43.44V19.52h3.31V43.44Zm-23.52-7.8h3a6.22,6.22,0,0,0,1.72,4.1,6.49,6.49,0,0,0,4.5,1.59,7.14,7.14,0,0,0,4.36-1.19A3.61,3.61,0,0,0,261.62,37c0-1.86-2.13-3.31-6.07-4.24-.28,0-.41,0-.53-.12-3.3-.8-5.43-1.58-6.47-2.52a5.23,5.23,0,0,1-1.61-4.1,6.37,6.37,0,0,1,2.39-5.14A10.22,10.22,0,0,1,255.55,19a9.1,9.1,0,0,1,6.22,2,7,7,0,0,1,2.37,5.55l-3.18.13A5.15,5.15,0,0,0,259.38,23a5.8,5.8,0,0,0-4-1.31,6.31,6.31,0,0,0-3.82,1.05,3,3,0,0,0-1.44,2.77c0,1.86,2,3.17,5.93,4.1.53.14.93.27,1.34.41h.26c2.62.65,4.36,1.31,5.13,2a6.5,6.5,0,0,1,1.47,2,6,6,0,0,1,.53,2.64,6.89,6.89,0,0,1-2.51,5.54,10.1,10.1,0,0,1-6.61,2c-2.9,0-5.16-.65-6.88-2.23a8.72,8.72,0,0,1-2.51-6.22ZM224.36,19.52h9.25a18.94,18.94,0,0,1,3.28.26,7.83,7.83,0,0,1,2,.66,6.15,6.15,0,0,1,2.25,2.25,7.34,7.34,0,0,1,.79,3.58,6.65,6.65,0,0,1-.79,3.29,6.7,6.7,0,0,1-2.52,2.12,3.21,3.21,0,0,1,2,1.31,6.5,6.5,0,0,1,.78,3l.29,4a7.3,7.3,0,0,0,.25,2c.26.41.4.67.79.81v.65H239c-.41-.52-.54-1.58-.67-3.17v-.13l-.25-3a4.51,4.51,0,0,0-.93-3.17,9.8,9.8,0,0,0-4.38-.66h-5.28V43.44h-3.16V19.52Zm3.16,2.9v8.06h5.56a8,8,0,0,0,4.22-.92,4,4,0,0,0,1.32-3.29,3.62,3.62,0,0,0-1.18-3.05,8.42,8.42,0,0,0-4.36-.8Zm-25.38,21V19.52H219.2v3.05H205.45V29.7h12.69v2.77H205.45v8.06h14v2.91Zm-15.19,0-8.59-23.92h3.43l6.87,20.09,6.62-20.09h3.43l-8.45,23.92Zm-15.34,0V19.52h3.18V43.44Zm-25,0V19.52h3.43L161.32,37c.26.38.39.64.65,1.07.14.25.27.65.39.9V19.52h3.18V43.44H162L150.61,25.87a2.84,2.84,0,0,1-.53-.8c-.13-.27-.26-.66-.39-.93v19.3Zm-24.73-9V19.52h3.31V34.45a7.2,7.2,0,0,0,1.46,4.9,7.06,7.06,0,0,0,9.24,0c1.07-1.06,1.47-2.65,1.47-4.9V19.52h3.29V34.45c0,3.16-.79,5.55-2.5,7.27s-4.11,2.37-7.28,2.37a9.15,9.15,0,0,1-6.74-2.37C122.72,40.14,121.92,37.61,121.92,34.45Z" style="fill:#1b1c20;fill-rule:evenodd"/><path d="M23.75,20V80.15h85.82V20Zm3.13,2.77H47.8L26.88,67.4Zm0,54.47L51.69,22.81H67.15L42.35,77.28Zm19.7,0L71.25,22.81H86.94L62,77.28Zm59.83,0H85.49l20.92-44.59Zm-24.8,0H66.14l24.8-54.47h15.47Z" style="fill:#1b1c20;fill-rule:evenodd"/></svg>