<?xml version="1.0" encoding="utf-8"?>
<!-- Generator: Adobe Illustrator 25.2.1, SVG Export Plug-In . SVG Version: 6.00 Build 0)  -->
<svg version="1.1" id="_x37_b6a2036-dce0-4b88-b7ac-fd4b41c90854"
	 xmlns="http://www.w3.org/2000/svg" xmlns:xlink="http://www.w3.org/1999/xlink" x="0px" y="0px" viewBox="0 0 506.5 99.1"
	 style="enable-background:new 0 0 506.5 99.1;" xml:space="preserve">
<style type="text/css">
	.st0{fill-rule:evenodd;clip-rule:evenodd;fill:#FFFFFF;}
</style>
<path class="st0" d="M468.4,54.2h5.7l8.6,23.9h-5.2l-1.6-5h-9.2l-1.6,5H460L468.4,54.2L468.4,54.2z M471.3,59L468,69.1h6.6L471.3,59
	L471.3,59z M442.2,78.1V54.2h4.9v19.4h11.6v4.5L442.2,78.1z M421.9,78.1V54.2h5v19.4h11.6v4.5L421.9,78.1z M399.3,78.1V54.2h17.3
	v4.1h-12.4v5.2h11.4v4.1h-11.4v6.1h13.1v4.5H399.3z M383.6,78.1V58.4h-7.1v-4.2h19v4.2h-7v19.7H383.6z M354.7,78.1V54.2h4.9v23.9
	H354.7z M329.5,78.1V54.2h9.3c3.7,0,6.5,0.9,8.2,2.9c1.9,2,2.8,5,2.8,9c0,2-0.3,4-1,5.8c-0.5,1.6-1.6,3-2.9,4
	c-0.9,0.8-2,1.4-3.2,1.7c-1.7,0.4-3.4,0.5-5.1,0.5L329.5,78.1z M334.2,73.8h4c2.2,0,4-0.6,4.9-1.8s1.6-3,1.6-5.8s-0.5-4.6-1.5-5.8
	s-2.4-1.8-4.5-1.8h-4.5L334.2,73.8L334.2,73.8z M288.8,66.1c0-3.8,1.1-6.9,3.2-9.1c2.2-2.3,5.3-3.6,8.5-3.4c3.2-0.1,6.4,1.1,8.6,3.4
	c2.1,2.3,3.2,5.3,3.2,9.1c0,3.8-1,7-3.2,9.2c-2.2,2.3-5.4,3.6-8.6,3.4c-3.2,0.1-6.3-1.1-8.5-3.4C289.9,73.1,288.8,69.9,288.8,66.1
	L288.8,66.1z M293.8,66.1c0,2.7,0.5,4.8,1.7,6.2c1.2,1.4,3,2.2,4.9,2.1c1.9,0.1,3.8-0.7,5-2.1c1.2-1.4,1.7-3.6,1.7-6.2
	s-0.5-4.6-1.7-6.1c-1.2-1.5-3.1-2.3-5-2.2c-1.9-0.1-3.7,0.8-4.9,2.2C294.3,61.8,293.7,63.9,293.8,66.1L293.8,66.1z M274.2,78.1V58.4
	H267v-4.2h19v4.2h-7v19.7L274.2,78.1z M252.6,54.2h5.7l8.6,23.9h-5.1l-1.6-5h-9.2l-1.6,5h-5.2C244.2,78.1,252.6,54.2,252.6,54.2z
	 M255.5,59l-3.4,10.2h6.7L255.5,59L255.5,59z M222.2,54.1h5v15.1c0,1.9,0.2,3.2,1,4s1.9,1.3,3.4,1.3s2.9-0.4,3.6-1.3
	c0.9-1.1,1.3-2.6,1.2-4V54.1h4.9v15.6c0,2.9-0.8,5.2-2.5,6.7s-4,2.4-7,2.4s-5.6-0.8-7.1-2.4c-1.7-1.6-2.5-3.8-2.5-6.7L222.2,54.1
	L222.2,54.1z M217.5,69.8c0,2.5-1.2,4.9-3.2,6.5c-2.1,1.8-4.7,2.7-7.4,2.5c-3.1,0.1-6.1-1.1-8.3-3.3c-2-2.7-3.1-6-2.9-9.4
	c0-4,1.1-7.1,3-9.2c2-2.3,4.9-3.3,8.6-3.3c2.6-0.1,5.2,0.7,7.3,2.2c1.8,1.6,2.9,3.9,2.9,6.3h-4.9c-0.1-1.2-0.7-2.3-1.5-3.1
	c-1.1-0.7-2.4-1.1-3.7-1c-1.9-0.2-3.7,0.6-4.9,2c-1.2,1.5-1.7,3.5-1.7,6.1c0,2.6,0.5,4.6,1.7,6.1c1.1,1.5,2.9,2.3,4.8,2.1
	c1.3,0.1,2.6-0.4,3.7-1.2c1-0.8,1.7-2,1.9-3.3L217.5,69.8z M172,78.1V54.2h11.6c2.5,0,4.5,0.5,5.7,1.6c1.4,1.3,2.1,3.2,2,5.2
	c0,1.3-0.3,2.5-0.9,3.7c-0.7,0.9-1.6,1.6-2.6,2c0.9,0.3,1.7,0.9,2.3,1.7c0.5,1.1,0.7,2.3,0.7,3.4l0.1,2.9l0,0c0,1.4,0.4,2.4,0.9,2.6
	v0.8h-5.4c-0.1-0.4-0.3-0.8-0.4-1.3s-0.1-1.1-0.1-1.7v-2.5c0-1.1-0.3-2.1-0.9-3c-0.7-0.6-1.7-0.9-2.6-0.8h-5.3v9.4L172,78.1z
	 M176.9,64.6h5.8c1,0.1,2-0.2,2.8-0.8c0.6-0.6,0.9-1.5,0.9-2.4c0-0.9-0.3-1.7-0.9-2.4c-0.7-0.6-1.6-0.8-2.5-0.8h-6.1L176.9,64.6
	L176.9,64.6z M143.7,66.1c0-3.8,1.1-6.9,3.2-9.1c2.2-2.3,5.4-3.6,8.6-3.4c3.2-0.1,6.3,1.1,8.5,3.5c2.1,2.3,3.2,5.3,3.2,9.1
	c0,3.8-1,7-3.2,9.2c-2.2,2.3-5.3,3.6-8.5,3.4c-3.2,0.1-6.3-1.1-8.6-3.4C144.8,73.1,143.8,70,143.7,66.1L143.7,66.1z M148.7,66.1
	c-0.1,2.2,0.5,4.4,1.9,6.2c2.5,2.7,6.8,2.8,9.5,0.3c0.1-0.1,0.2-0.2,0.3-0.3c1.3-1.8,2-4,1.9-6.2c0.1-2.2-0.5-4.3-1.8-6.1
	c-2.3-2.7-6.4-3-9.1-0.6c-0.2,0.2-0.4,0.4-0.6,0.6C149.3,61.7,148.6,63.9,148.7,66.1L148.7,66.1z M129,78.1V58.4h-7.2v-4.2h19.2v4.2
	H134v19.7L129,78.1z"/>
<path class="st0" d="M325.5,43.4V19.5h9.1c2.9-0.1,5.7,1,7.7,3c1.7,2,2.6,4.9,2.6,8.6c0,4-0.9,6.9-2.8,9.1c-1.9,2.2-4.8,3.3-7.7,3.2
	L325.5,43.4z M334.3,22.3h-5.5v18.2h5.5c2.1,0.1,4.1-0.7,5.4-2.2c1.3-2.1,2-4.5,1.9-7c0.1-2.3-0.5-4.7-1.9-6.6
	C338.4,23.1,336.4,22.2,334.3,22.3L334.3,22.3z M300.7,43.4l8.9-23.9h3.6l8.8,23.9h-3.5l-2.5-7.1h-9.5l-2.5,7.1H300.7z M307.6,33.5
	h7.4L311.3,23L307.6,33.5L307.6,33.5z M279.2,43.4V19.5h9.1c2.9-0.1,5.7,1,7.7,3c1.7,2,2.6,4.9,2.6,8.6c0,4-1,6.9-2.8,9.1
	c-1.9,2.2-4.8,3.3-7.7,3.2L279.2,43.4z M288.1,22.3h-5.6v18.2h5.5c2.1,0.1,4.1-0.7,5.4-2.2c1.2-1.6,1.9-4,1.9-7
	c0.1-2.3-0.5-4.7-1.9-6.6C292.1,23.1,290.1,22.2,288.1,22.3L288.1,22.3z M269.8,43.4V19.5h3.3v23.9H269.8z M246.3,35.6h3
	c0,1.5,0.7,3,1.7,4.1c1.2,1.1,2.9,1.7,4.5,1.6c1.5,0.1,3.1-0.3,4.4-1.2c1.1-0.7,1.8-1.9,1.8-3.1c0-1.9-2.1-3.3-6.1-4.2
	c-0.3,0-0.4,0-0.5-0.1c-3.3-0.8-5.4-1.6-6.5-2.5c-1.1-1.1-1.7-2.6-1.6-4.1c-0.1-2,0.8-3.9,2.4-5.1c1.8-1.3,4-1.9,6.2-1.9
	c2.2-0.1,4.5,0.6,6.2,2c1.6,1.4,2.5,3.4,2.4,5.5l-3.2,0.1c0-1.4-0.6-2.7-1.6-3.7c-1.1-0.9-2.5-1.4-4-1.3c-1.4-0.1-2.7,0.3-3.8,1
	c-1,0.6-1.5,1.6-1.4,2.8c0,1.9,2,3.2,5.9,4.1c0.5,0.1,0.9,0.3,1.3,0.4h0.3c2.6,0.6,4.4,1.3,5.1,2c0.6,0.6,1.1,1.2,1.5,2
	c0.4,0.8,0.6,1.7,0.5,2.6c0.1,2.1-0.9,4.2-2.5,5.5c-1.9,1.4-4.2,2.1-6.6,2c-2.9,0-5.2-0.7-6.9-2.2c-1.6-1.7-2.5-3.9-2.5-6.2
	L246.3,35.6z M224.4,19.5h9.2c1.1,0,2.2,0.1,3.3,0.3c0.7,0.1,1.4,0.4,2,0.7c0.9,0.5,1.7,1.3,2.2,2.2c0.6,1.1,0.8,2.3,0.8,3.6
	c0,1.1-0.2,2.3-0.8,3.3c-0.7,0.9-1.5,1.6-2.5,2.1c0.8,0.2,1.5,0.6,2,1.3c0.5,0.9,0.8,2,0.8,3l0.3,4c0,0.7,0.1,1.3,0.2,2
	c0.3,0.4,0.4,0.7,0.8,0.8v0.7H239c-0.4-0.5-0.5-1.6-0.7-3.2v-0.1l-0.2-3c0.1-1.1-0.2-2.3-0.9-3.2c-1.4-0.6-2.9-0.8-4.4-0.7h-5.3
	v10.1h-3.2L224.4,19.5L224.4,19.5z M227.5,22.4v8.1h5.6c1.5,0.1,2.9-0.2,4.2-0.9c0.9-0.8,1.4-2,1.3-3.3c0.1-1.1-0.3-2.3-1.2-3
	c-1.4-0.7-2.9-0.9-4.4-0.8L227.5,22.4z M202.1,43.4V19.5h17.1v3h-13.8v7.1h12.7v2.8h-12.7v8.1h14v2.9L202.1,43.4z M186.9,43.4
	l-8.6-23.9h3.4l6.9,20.1l6.6-20.1h3.4l-8.4,23.9H186.9z M171.6,43.4V19.5h3.2v23.9L171.6,43.4z M146.6,43.4V19.5h3.4L161.3,37
	c0.3,0.4,0.4,0.6,0.6,1.1c0.1,0.2,0.3,0.7,0.4,0.9V19.5h3.2v23.9H162l-11.4-17.6c-0.2-0.2-0.4-0.5-0.5-0.8c-0.1-0.3-0.3-0.7-0.4-0.9
	v19.3L146.6,43.4z M121.9,34.4V19.5h3.3v14.9c-0.1,1.8,0.4,3.5,1.5,4.9c2.7,2.3,6.6,2.3,9.2,0c1.1-1.1,1.5-2.7,1.5-4.9V19.5h3.3
	v14.9c0,3.2-0.8,5.5-2.5,7.3s-4.1,2.4-7.3,2.4c-2.5,0.2-4.9-0.7-6.7-2.4C122.7,40.1,121.9,37.6,121.9,34.4L121.9,34.4z"/>
<path class="st0" d="M23.8,20v60.2h85.8V20H23.8z M26.9,22.8h20.9L26.9,67.4L26.9,22.8z M26.9,77.2l24.8-54.4h15.5L42.3,77.3
	L26.9,77.2z M46.6,77.2l24.7-54.4h15.7L62,77.3L46.6,77.2z M106.4,77.2H85.5l20.9-44.6L106.4,77.2z M81.6,77.2H66.1l24.8-54.5h15.5
	L81.6,77.2z"/>
</svg>
