<svg id="2294c19f-285f-44b5-8985-bb441dcc14e3" data-name="Layer 1" xmlns="http://www.w3.org/2000/svg" viewBox="0 0 506.47 99.13"><title>_LOGOS UTDT</title><rect x="23.75" y="17.46" width="90.81" height="64.22" style="fill:#1b1c20"/><path d="M468.64,54.92h5.59l8.48,23.58h-5.08l-1.57-4.94H467l-1.56,4.94H460.3l8.34-23.58Zm2.87,4.7-3.26,10h6.52l-3.26-10ZM442.85,78.5V54.92h4.82V74.07h11.45V78.5Zm-20.05,0V54.92h4.93V74.07H439.2V78.5Zm-22.28,0V54.92h17.05V59H405.34v5.07h11.2v4h-11.2v6h12.89V78.5ZM385,78.5V59.1h-7V54.92h18.76V59.1h-6.92V78.5Zm-28.45,0V54.92h4.82V78.5Zm-24.88,0V54.92h9.12c3.64,0,6.37.93,8.07,2.87s2.73,5,2.73,8.86a15.59,15.59,0,0,1-1,5.74,8.3,8.3,0,0,1-2.87,3.92A9.2,9.2,0,0,1,344.6,78a22.26,22.26,0,0,1-5.08.52Zm4.69-4.29h3.91c2.21,0,3.9-.65,4.82-1.82s1.56-3,1.56-5.74-.52-4.56-1.43-5.72-2.34-1.83-4.43-1.83h-4.43V74.21Zm-44.75-7.56q0-5.66,3.13-9a10.9,10.9,0,0,1,8.34-3.39,11.19,11.19,0,0,1,8.47,3.39q3.12,3.33,3.13,9c0,3.78-1,6.91-3.13,9.12a11.2,11.2,0,0,1-8.47,3.4,10.91,10.91,0,0,1-8.34-3.4c-2.09-2.21-3.13-5.34-3.13-9.12Zm4.95,0c0,2.61.53,4.69,1.71,6.12a5.74,5.74,0,0,0,4.81,2.08,6,6,0,0,0,4.95-2.08c1.18-1.43,1.69-3.51,1.69-6.12s-.51-4.56-1.69-6a6.12,6.12,0,0,0-4.95-2.19,5.84,5.84,0,0,0-4.81,2.19,9.13,9.13,0,0,0-1.71,6ZM277.19,78.5V59.1h-7V54.92h18.77V59.1H282V78.5ZM256,54.92h5.59L270,78.5H265l-1.58-4.94h-9.11L252.7,78.5h-5.08L256,54.92Zm2.86,4.7-3.38,10h6.63l-3.25-10ZM226,54.8h5V69.64c0,1.84.25,3.13,1,3.92a3.92,3.92,0,0,0,3.39,1.29c1.7,0,2.86-.38,3.52-1.29a5.37,5.37,0,0,0,1.17-3.92V54.8h4.81V70.18c0,2.86-.77,5.08-2.47,6.63s-3.9,2.36-6.9,2.36-5.47-.79-7-2.36S226,73,226,70.18V54.8Zm-4.69,15.5a8.21,8.21,0,0,1-3.12,6.39,10.38,10.38,0,0,1-7.3,2.48,10.77,10.77,0,0,1-8.2-3.27,14.29,14.29,0,0,1-2.87-9.25c0-3.9,1.05-7,3-9.1,2-2.23,4.81-3.28,8.45-3.28a10.93,10.93,0,0,1,7.18,2.23,8.33,8.33,0,0,1,2.86,6.25h-4.82a4.86,4.86,0,0,0-1.57-3.13,6.11,6.11,0,0,0-3.65-1,5.6,5.6,0,0,0-4.8,2.06c-1.18,1.44-1.7,3.4-1.7,6s.52,4.56,1.7,6a5.37,5.37,0,0,0,4.69,2.08,5.53,5.53,0,0,0,3.63-1.16,5,5,0,0,0,1.83-3.26ZM176.5,78.5V54.92H188c2.48,0,4.43.53,5.61,1.58a6.48,6.48,0,0,1,2,5.09,7.84,7.84,0,0,1-.92,3.62,5.54,5.54,0,0,1-2.61,2,4.06,4.06,0,0,1,2.21,1.69,6.87,6.87,0,0,1,.66,3.38l.13,2.87h0c0,1.43.4,2.34.91,2.6v.78h-5.34c-.13-.38-.26-.78-.39-1.29s-.13-1-.13-1.7V73a5.11,5.11,0,0,0-.92-3,3.4,3.4,0,0,0-2.58-.78h-5.24V78.5Zm4.81-13.29h5.75a4.4,4.4,0,0,0,2.74-.77,3.29,3.29,0,0,0,.9-2.35,3.34,3.34,0,0,0-.9-2.35,3.57,3.57,0,0,0-2.49-.76h-6v6.23Zm-32.68,1.44q0-5.66,3.13-9a11.22,11.22,0,0,1,8.47-3.39,10.93,10.93,0,0,1,8.34,3.39q3.12,3.33,3.12,9c0,3.78-1,6.91-3.12,9.12a10.94,10.94,0,0,1-8.34,3.4,11.23,11.23,0,0,1-8.47-3.4c-2.09-2.21-3.13-5.34-3.13-9.12Zm5,0a9.46,9.46,0,0,0,1.82,6.12,6.61,6.61,0,0,0,9.63,0,9.46,9.46,0,0,0,1.83-6.12,9.15,9.15,0,0,0-1.83-6,6.39,6.39,0,0,0-9.63,0,9.14,9.14,0,0,0-1.82,6ZM134.18,78.5V59.1h-7V54.92H146V59.1h-7V78.5Z" style="fill:#1b1c20;fill-rule:evenodd"/><path d="M327.72,44.33V20.75h9a9.83,9.83,0,0,1,7.56,3c1.69,1.95,2.59,4.82,2.59,8.46,0,3.91-.9,6.79-2.73,9a9.45,9.45,0,0,1-7.56,3.13Zm8.74-20.85H331v18h5.47a6.58,6.58,0,0,0,5.33-2.21,11.47,11.47,0,0,0,1.83-6.91,10.42,10.42,0,0,0-1.83-6.51,6.48,6.48,0,0,0-5.33-2.35ZM303.37,44.33l8.73-23.58h3.52l8.73,23.58H321l-2.48-7H309.1l-2.47,7Zm6.77-9.77h7.3l-3.65-10.42-3.65,10.42Zm-28,9.77V20.75h9a9.83,9.83,0,0,1,7.56,3c1.67,1.95,2.6,4.82,2.6,8.46,0,3.91-.93,6.79-2.74,9A9.44,9.44,0,0,1,291,44.33Zm8.73-20.85H285.4v18h5.47a6.58,6.58,0,0,0,5.33-2.21A11.47,11.47,0,0,0,298,32.34a10.42,10.42,0,0,0-1.82-6.51,6.48,6.48,0,0,0-5.33-2.35Zm-18,20.85V20.75h3.26V44.33Zm-23.18-7.69h3a6.16,6.16,0,0,0,1.7,4,6.36,6.36,0,0,0,4.43,1.56,7,7,0,0,0,4.3-1.17,3.55,3.55,0,0,0,1.68-3.13c0-1.82-2.09-3.25-6-4.17-.28,0-.4,0-.53-.12-3.25-.79-5.33-1.56-6.37-2.48a5.21,5.21,0,0,1-1.58-4,6.27,6.27,0,0,1,2.35-5.07,10.06,10.06,0,0,1,6.13-1.85,8.93,8.93,0,0,1,6.13,2,6.91,6.91,0,0,1,2.34,5.46l-3.14.14a5,5,0,0,0-1.56-3.65,5.63,5.63,0,0,0-3.91-1.3,6.24,6.24,0,0,0-3.77,1,3,3,0,0,0-1.42,2.74c0,1.82,1.95,3.13,5.84,4,.52.14.92.26,1.32.39h.25c2.59.65,4.31,1.3,5.07,2a6.19,6.19,0,0,1,1.44,2,5.76,5.76,0,0,1,.53,2.59A6.78,6.78,0,0,1,265.47,43,9.88,9.88,0,0,1,259,45c-2.86,0-5.08-.64-6.78-2.2a8.58,8.58,0,0,1-2.47-6.13ZM228.09,20.75h9.12a17.42,17.42,0,0,1,3.23.26,8,8,0,0,1,2,.65,6,6,0,0,1,2.22,2.21,7.33,7.33,0,0,1,.78,3.53,6.57,6.57,0,0,1-.78,3.25,6.66,6.66,0,0,1-2.48,2.09,3.13,3.13,0,0,1,2,1.29,6.48,6.48,0,0,1,.77,3l.28,3.9a7.19,7.19,0,0,0,.25,2c.25.4.4.66.78.79v.65h-3.64a6.83,6.83,0,0,1-.66-3.13v-.13l-.24-3a4.35,4.35,0,0,0-.93-3.11,9.43,9.43,0,0,0-4.3-.66h-5.21v10h-3.12V20.75Zm3.12,2.87v7.93h5.48a7.88,7.88,0,0,0,4.16-.9,4,4,0,0,0,1.3-3.25,3.57,3.57,0,0,0-1.17-3c-.78-.53-2.21-.78-4.29-.78Zm-25,20.71V20.75H223v3H209.46v7H222v2.72H209.46v8h13.8v2.87Zm-15,0-8.47-23.58h3.38l6.79,19.8,6.51-19.8h3.39l-8.34,23.58Zm-15.11,0V20.75h3.13V44.33Zm-24.61,0V20.75h3.38L166,37.94c.26.39.39.65.65,1.06.13.25.26.64.38.89V20.75h3.13V44.33h-3.51L155.41,27a3.48,3.48,0,0,1-.53-.78c-.12-.27-.26-.66-.38-.93v19Zm-24.36-8.87V20.75h3.26V35.46a7.11,7.11,0,0,0,1.44,4.84,7,7,0,0,0,9.1,0c1.05-1,1.45-2.62,1.45-4.84V20.75h3.24V35.46c0,3.13-.77,5.47-2.46,7.17S139.11,45,136,45a9,9,0,0,1-6.65-2.34C127.92,41.07,127.14,38.59,127.14,35.46Z" style="fill:#1b1c20;fill-rule:evenodd"/><polygon points="95.06 20.52 111.53 20.52 85.13 78.52 68.67 78.52 95.06 20.52" style="fill:#f9bc00;fill-rule:evenodd"/><polygon points="74.1 20.52 90.8 20.52 64.27 78.52 47.84 78.52 74.1 20.52" style="fill:#f9bc00;fill-rule:evenodd"/><polygon points="53.27 20.52 69.73 20.52 43.33 78.52 26.87 78.52 53.27 20.52" style="fill:#f9bc00;fill-rule:evenodd"/><polygon points="89.26 78.52 111.53 31.04 111.53 78.52 89.26 78.52" style="fill:#808083;fill-rule:evenodd"/><polygon points="49.14 20.52 26.87 67.99 26.87 20.52 49.14 20.52" style="fill:#808083;fill-rule:evenodd"/></svg>