<svg id="Layer_1" data-name="Layer 1" xmlns="http://www.w3.org/2000/svg" viewBox="0 0 160.66 160.66"><defs><style>.cls-1{fill:#fff;}</style></defs><path class="cls-1" d="M116.64,53.85a7.71,7.71,0,0,0-6.17,6.61h0l14-3A6.67,6.67,0,0,0,116.64,53.85Z"/><path class="cls-1" d="M103.06,106.25c-3.2.69-5.34,3.1-4.8,5.64s3.11,3.63,6.13,3c3.38-.72,6.26-3,6.24-6h0L110,106A20.35,20.35,0,0,0,103.06,106.25Z"/><path class="cls-1" d="M41.93,57.64c-4.9,1-7.56,5.46-6.46,10.66s5.35,8.22,10.25,7.17c4.65-1,7.2-5.37,6.08-10.64S46.58,56.64,41.93,57.64Z"/><path class="cls-1" d="M80.33,0a80.33,80.33,0,1,0,80.33,80.33h0A80.33,80.33,0,0,0,80.33,0Zm1.86,53.77-1.82-8.58,8.46-1.8L90.65,52l6.77-1.43,1.52,7.13-6.77,1.44,3,13.9a3.26,3.26,0,0,0,3.61,2.89l.09,0a4.59,4.59,0,0,0,2.81-1.67l3.33,5.3a11.59,11.59,0,0,1-6.61,4.25A9.27,9.27,0,0,1,87.12,77c-.06-.27-.12-.54-.16-.82L83.71,60.91l-4.29.91L77.9,54.68ZM76.64,75.92l-8.82,1.87L61.17,46.54,70,44.66ZM62.71,31.74a4.89,4.89,0,0,1,2,9.56,4.94,4.94,0,0,1-5.86-3.79v0A4.89,4.89,0,0,1,62.71,31.74ZM54.17,76a13.1,13.1,0,0,1-9.41,7.43c-8.34,1.78-15.83-3.71-17.87-13.32s2.58-17.61,10.92-19.38a13.11,13.11,0,0,1,11.62,3L46.14,38.24,55,36.36l9,42.26-8.83,1.87Zm14,52.18L59.19,86,68,84.07l9,42.26Zm12.7-2.69-9-42.26,8.82-1.88,9,42.26Zm31.86-6.78-.67-3.14a12.72,12.72,0,0,1-8.37,5.82c-6.65,1.41-12.64-1.48-13.91-7.47-1.31-6.17,3.54-11.62,10.79-13.16a22.81,22.81,0,0,1,8.32-.12l-.13-.61c-.71-3.32-3.38-5.79-8.52-4.7a18.49,18.49,0,0,0-7.63,4l-4.2-5.23a29.21,29.21,0,0,1,12.32-6.22c8.16-1.74,14.82,2.21,16.55,10.38l4,18.68Zm7.61-47.79a11.57,11.57,0,0,0,6.6-4.31l6.84,4.55c-2.16,3.49-7.13,6.57-11.72,7.55a16.46,16.46,0,0,1-19.88-12.07c-.07-.28-.13-.57-.18-.86a16.09,16.09,0,0,1,11.76-19.49l.86-.19C124.41,44,131.74,50.25,134.24,62l-22.55,4.79A7.76,7.76,0,0,0,120.34,70.94Z"/></svg>