<svg id="Layer_1" data-name="Layer 1" xmlns="http://www.w3.org/2000/svg" viewBox="0 0 160.66 160.66"><defs><style>.cls-1{fill:#f5a800;}.cls-2{fill:#00cabb;}.cls-3{fill:#e31d93;}</style></defs><path id="Trazado_87-2" data-name="Trazado 87-2" d="M160.66,80.33A80.33,80.33,0,1,1,80.33,0a80.34,80.34,0,0,1,80.33,80.33h0"/><g id="Grupo_418" data-name="Grupo 418"><g id="Grupo_399-2" data-name="Grupo 399-2"><path id="Trazado_73-2" data-name="Trazado 73-2" class="cls-1" d="M55,36.36l9,42.26-8.83,1.87L54.17,76a13.1,13.1,0,0,1-9.41,7.43c-8.34,1.78-15.83-3.71-17.87-13.32s2.58-17.61,10.92-19.38a13.11,13.11,0,0,1,11.62,3L46.14,38.24ZM51.8,64.83c-1.11-5.2-5.22-8.19-9.87-7.19-4.9,1-7.56,5.46-6.46,10.66s5.35,8.22,10.25,7.17C50.37,74.49,52.92,70.1,51.8,64.83Z"/><path id="Trazado_74-2" data-name="Trazado 74-2" class="cls-1" d="M58.87,37.49a4.88,4.88,0,1,1,5.87,3.81,4.89,4.89,0,0,1-5.87-3.81Zm2.3,9L70,44.66l6.64,31.26-8.82,1.87Z"/></g><g id="Grupo_400-2" data-name="Grupo 400-2"><path id="Trazado_75-2" data-name="Trazado 75-2" class="cls-2" d="M105,79.51a11.59,11.59,0,0,1-6.61,4.25A9.27,9.27,0,0,1,87.12,77c-.06-.27-.12-.54-.16-.82L83.71,60.91l-4.29.91L77.9,54.68l4.29-.91-1.82-8.58,8.46-1.8L90.65,52l6.77-1.43,1.52,7.13-6.77,1.44,3,13.9a3.26,3.26,0,0,0,3.61,2.89l.09,0a4.59,4.59,0,0,0,2.81-1.67Z"/><path id="Trazado_76-2" data-name="Trazado 76-2" class="cls-2" d="M126.94,66.63l6.84,4.55c-2.16,3.49-7.13,6.57-11.72,7.55a16.46,16.46,0,0,1-19.88-12.07c-.07-.28-.13-.57-.18-.86a16.09,16.09,0,0,1,11.76-19.49l.86-.19C124.41,44,131.74,50.25,134.24,62l-22.55,4.79a7.76,7.76,0,0,0,8.65,4.11A11.57,11.57,0,0,0,126.94,66.63Zm-16.47-6.16,14-3a6.67,6.67,0,0,0-7.79-3.65,7.71,7.71,0,0,0-6.17,6.61Z"/></g><g id="Grupo_401-2" data-name="Grupo 401-2"><path id="Trazado_77-2" data-name="Trazado 77-2" class="cls-3" d="M59.19,86,68,84.07l9,42.26-8.83,1.87Z"/><path id="Trazado_78-2" data-name="Trazado 78-2" class="cls-3" d="M71.89,83.25l8.82-1.88,9,42.26-8.82,1.88Z"/><path id="Trazado_79-2" data-name="Trazado 79-2" class="cls-3" d="M117.28,98.24l4,18.68-8.52,1.81-.67-3.14a12.72,12.72,0,0,1-8.37,5.82c-6.65,1.41-12.64-1.48-13.91-7.47-1.31-6.17,3.54-11.62,10.79-13.16a22.81,22.81,0,0,1,8.32-.12l-.13-.61c-.71-3.32-3.38-5.79-8.52-4.7a18.49,18.49,0,0,0-7.63,4l-4.2-5.23a29.21,29.21,0,0,1,12.32-6.22C108.89,86.12,115.55,90.07,117.28,98.24Zm-6.65,10.64L110,106a20.35,20.35,0,0,0-7,.27c-3.2.69-5.34,3.1-4.8,5.64s3.11,3.63,6.13,3c3.38-.72,6.26-3,6.24-6Z"/></g></g></svg>