<svg id="Layer_1" data-name="Layer 1" xmlns="http://www.w3.org/2000/svg" viewBox="0 0 120.63 108.02"><path d="M32.71,5.4,43,53.81,32.89,56,31.8,50.83A15,15,0,0,1,21,59.35C11.46,61.38,2.89,55.1.55,44.09s3-20.17,12.5-22.2a15,15,0,0,1,13.32,3.39L22.6,7.55ZM29.08,38c-1.27-6-6-9.37-11.31-8.23C12.16,31,9.11,36,10.38,42s6.13,9.41,11.74,8.22C27.45,49.08,30.36,44.05,29.08,38Z"/><path d="M37.19,6.69a5.59,5.59,0,1,1,6.71,4.37A5.63,5.63,0,0,1,37.19,6.69Zm2.64,10.37,10.11-2.14,7.61,35.8L47.44,52.87Z"/><path d="M87.1,54.84a13.36,13.36,0,0,1-7.58,4.87c-6.3,1.34-11.69-2.22-13.06-8.66L62.74,33.52l-4.92,1L56.08,26.4l4.92-1-2.09-9.83,9.69-2.06,2.09,9.83,7.76-1.65,1.74,8.18-7.76,1.64,3.39,15.93c.5,2.36,2.37,3.7,4.24,3.3a5.37,5.37,0,0,0,3.22-1.92Z"/><path d="M112.26,40.08l7.84,5.21c-2.48,4-8.17,7.53-13.43,8.65C96,56.2,86,50.14,83.69,39.13c-2.3-10.8,4-20.32,14.46-22.54,11.22-2.39,19.61,4.73,22.48,18.24L94.8,40.32a8.89,8.89,0,0,0,9.9,4.7A13.28,13.28,0,0,0,112.26,40.08ZM93.39,33l16-3.4a7.64,7.64,0,0,0-8.93-4.19A8.86,8.86,0,0,0,93.39,33Z"/><path d="M34.65,59.61l10.11-2.15,10.29,48.41L44.94,108Z"/><path d="M49.19,56.52,59.3,54.37l10.29,48.41-10.11,2.15Z"/><path d="M101.2,73.7l4.54,21.39L96,97.17l-.76-3.6a14.59,14.59,0,0,1-9.59,6.67c-7.62,1.62-14.48-1.7-15.93-8.56-1.5-7.06,4-13.31,12.35-15.07a26.39,26.39,0,0,1,9.53-.15l-.15-.69c-.81-3.81-3.87-6.63-9.76-5.38a21,21,0,0,0-8.73,4.53l-4.82-6A33.54,33.54,0,0,1,82.24,61.8C91.59,59.81,99.21,64.35,101.2,73.7ZM93.58,85.88l-.71-3.32a23,23,0,0,0-8,.32c-3.67.78-6.13,3.54-5.51,6.45s3.57,4.16,7,3.43C90.31,91.93,93.6,89.35,93.58,85.88Z"/></svg>